#!OML:ASF H:\MichaelJackson\Top Level 1\Subject 1\Session 1\male.ASF
:FULLY-SPECIFIED
:DEGREES
999
root 3.58245 16.6431 28.222 -178.393 150.169 184.203
lowerback 2.30121 -5.5661 -2.0635
upperback 0.969483 -7.47094 -3.46877
thorax -0.487105 -3.72997 -2.20155
lowerneck -5.9656 -6.51068 -0.684716
upperneck 3.73852 -8.91513 5.03391
head 2.50505 -4.30012 1.35878
rclavicle -3.66509e-014 -1.98785e-014
rhumerus -62.0809 8.90134 -84.0218
rradius 118.086
rwrist -1.76616
rhand 32.6465 -7.27584
rfingers 7.12502
rthumb 56.0692 695.388
lclavicle -3.66509e-014 -1.98785e-014
lhumerus -51.8533 -32.7193 109.972
lradius 53.5758
lwrist 18.3285
lhand 31.2272 19.6124
lfingers 7.12502
lthumb 54.8067 37.8899
rfemur -31.2775 -6.18105 -0.761369
rtibia 70.1525
rfoot 7.62492 -30.2121
rtoes 48.3339
lfemur -19.2271 23.2357 -17.7982
ltibia 39.3846
lfoot -13.4881 10.9719
ltoes 13.7273
1000
root 3.55429 16.6345 28.2752 -178.376 150.784 184.308
lowerback 2.09249 -5.51472 -1.92063
upperback 0.937635 -7.39407 -3.61608
thorax -0.439238 -3.69233 -2.45046
lowerneck -5.98654 -6.44232 -0.71373
upperneck 3.88855 -8.83137 5.06947
head 2.56035 -4.25467 1.37636
rclavicle -5.69021e-014 -3.97569e-015
rhumerus -62.2114 11.3188 -82.6719
rradius 120.789
rwrist -1.90676
rhand 32.7814 -6.94305
rfingers 7.12502
rthumb 56.1887 695.814
lclavicle -5.69021e-014 -3.97569e-015
lhumerus -51.9351 -32.1767 109.583
lradius 53.8137
lwrist 18.7058
lhand 31.2752 19.93
lfingers 7.12502
lthumb 54.8496 38.1769
rfemur -29.3196 -4.46239 -1.54996
rtibia 66.0352
rfoot 8.52779 -29.658
rtoes 46.4253
lfemur -18.6863 21.9435 -16.9831
ltibia 39.3999
lfoot -13.4723 10.3513
ltoes 13.9545
1001
root 3.51994 16.6216 28.33 -178.421 151.421 184.376
lowerback 1.90707 -5.47677 -1.8416
upperback 0.933126 -7.33592 -3.76876
thorax -0.368795 -3.66385 -2.66924
lowerneck -5.9697 -6.34723 -0.686945
upperneck 3.96591 -8.71462 5.14144
head 2.58239 -4.19283 1.40005
rclavicle 6.71395e-014 1.43125e-014
rhumerus -62.0017 13.602 -80.6142
rradius 123.255
rwrist -2.25823
rhand 32.3169 -6.7443
rfingers 7.12502
rthumb 55.777 695.694
lclavicle 6.71395e-014 1.43125e-014
lhumerus -52.076 -31.7483 109.175
lradius 54.2189
lwrist 19.222
lhand 31.2105 20.5718
lfingers 7.12502
lthumb 54.7918 38.86
rfemur -27.5051 -2.99638 -2.19429
rtibia 62.2884
rfoot 9.66433 -28.7559
rtoes 43.0921
lfemur -17.9941 20.5812 -15.9567
ltibia 39.3032
lfoot -13.3308 9.17786
ltoes 13.166
1002
root 3.48059 16.605 28.3871 -178.51 152.057 184.411
lowerback 1.70602 -5.45618 -1.81096
upperback 0.953691 -7.29961 -3.9321
thorax -0.259554 -3.6461 -2.87551
lowerneck -5.90991 -6.22797 -0.611832
upperneck 3.98747 -8.56818 5.24587
head 2.57607 -4.11628 1.42944
rclavicle 9.07949e-014 1.03368e-014
rhumerus -61.3489 15.7084 -77.7739
rradius 125.378
rwrist -2.96161
rhand 31.4927 -6.64999
rfingers 7.12502
rthumb 55.0437 695.243
lclavicle 9.07949e-014 1.03368e-014
lhumerus -52.2732 -31.4644 108.776
lradius 54.7145
lwrist 19.8214
lhand 31.072 21.4017
lfingers 7.12502
lthumb 54.6681 39.7777
rfemur -25.8236 -1.85887 -2.69375
rtibia 59.0249
rfoot 10.9529 -27.3702
rtoes 37.1184
lfemur -17.1447 19.1359 -14.7403
ltibia 39.0395
lfoot -13.1237 7.40737
ltoes 11.4821
1003
root 3.43725 16.5861 28.4461 -178.622 152.694 184.423
lowerback 1.4692 -5.44933 -1.81501
upperback 0.989297 -7.27934 -4.10859
thorax -0.112688 -3.63619 -3.08095
lowerneck -5.81747 -6.08982 -0.50245
upperneck 3.99045 -8.39853 5.3632
head 2.55565 -4.02821 1.45936
rclavicle -3.23025e-016 3.18055e-015
rhumerus -60.1602 17.6055 -74.1193
rradius 127.041
rwrist -4.15627
rhand 30.4432 -6.61744
rfingers 7.12502
rthumb 54.105 694.616
lclavicle -3.23025e-016 3.18055e-015
lhumerus -52.5146 -31.3216 108.395
lradius 55.2241
lwrist 20.4173
lhand 30.9262 22.2556
lfingers 7.12502
lthumb 54.5377 40.7234
rfemur -24.2844 -1.05637 -3.06749
rtibia 56.2984
rfoot 12.1546 -25.5114
rtoes 27.0569
lfemur -16.1441 17.6123 -13.3796
ltibia 38.5457
lfoot -12.9047 5.07258
ltoes 8.86572
1004
root 3.39114 16.5653 28.5071 -178.737 153.333 184.422
lowerback 1.17856 -5.45219 -1.83083
upperback 1.02706 -7.26898 -4.30449
thorax 0.0650828 -3.63104 -3.30577
lowerneck -5.69662 -5.93695 -0.367326
upperneck 4.00801 -8.21106 5.47576
head 2.53274 -3.93125 1.48465
rclavicle 5.33364e-014 -2.94201e-014
rhumerus -58.3926 19.2573 -69.698
rradius 128.139
rwrist -5.90972
rhand 29.2687 -6.6553
rfingers 7.12502
rthumb 53.0483 693.883
lclavicle 5.33364e-014 -2.94201e-014
lhumerus -52.786 -31.2973 108.037
lradius 55.6683
lwrist 20.9266
lhand 30.8625 22.9665
lfingers 7.12502
lthumb 54.4806 41.4743
rfemur -22.8788 -0.569254 -3.34985
rtibia 54.0909
rfoot 13.0676 -23.1987
rtoes 11.8163
lfemur -15.0025 15.9878 -11.9275
ltibia 37.7705
lfoot -12.783 2.25472
ltoes 5.52944
1005
root 3.34341 16.5427 28.5693 -178.83 153.974 184.426
lowerback 0.824178 -5.45979 -1.84556
upperback 1.05502 -7.26163 -4.51911
thorax 0.265754 -3.62717 -3.55688
lowerneck -5.56537 -5.77357 -0.22604
upperneck 4.07398 -8.01069 5.56415
head 2.52213 -3.82766 1.50121
rclavicle -2.07109e-014 -3.10104e-014
rhumerus -56.0258 20.6443 -64.5944
rradius 128.571
rwrist -8.21164
rhand 28.1407 -6.77277
rfingers 7.12502
rthumb 52.0278 693.138
lclavicle -2.07109e-014 -3.10104e-014
lhumerus -53.0654 -31.3526 107.702
lradius 55.9869
lwrist 21.2971
lhand 30.9467 23.4044
lfingers 7.12502
lthumb 54.556 41.8595
rfemur -21.6064 -0.349251 -3.58604
rtibia 52.3296
rfoot 13.4162 -20.6032
rtoes -6.42771
lfemur -13.7464 14.2322 -10.4487
ltibia 36.6849
lfoot -12.8483 -0.917151
ltoes 1.74741
1006
root 3.29528 16.5185 28.6323 -178.89 154.617 184.435
lowerback 0.407658 -5.46821 -1.83312
upperback 1.06087 -7.25264 -4.7496
thorax 0.473149 -3.62222 -3.84488
lowerneck -5.43999 -5.60334 -0.084872
upperneck 4.21426 -7.80242 5.60819
head 2.53496 -3.71966 1.50272
rclavicle -4.03533e-014 -2.22639e-014
rhumerus -53.101 21.7428 -58.9618
rradius 128.256
rwrist -10.9272
rhand 27.2016 -6.92303
rfingers 7.12502
rthumb 51.1743 692.493
lclavicle -4.03533e-014 -2.22639e-014
lhumerus -53.3392 -31.4461 107.386
lradius 56.1571
lwrist 21.5497
lhand 31.226 23.6163
lfingers 7.12502
lthumb 54.8057 41.8946
rfemur -20.4607 -0.327796 -3.80784
rtibia 50.9041
rfoot 13.0049 -18.0809
rtoes -22.2656
lfemur -12.4099 12.3263 -8.99299
ltibia 35.293
lfoot -13.1787 -4.30314
ltoes -2.02524
